<?xml version="1.0" standalone="no"?><!DOCTYPE svg PUBLIC "-//W3C//DTD SVG 1.1//EN" "http://www.w3.org/Graphics/SVG/1.1/DTD/svg11.dtd"><svg class="icon" width="200px" height="200.00px" viewBox="0 0 1024 1024" version="1.1" xmlns="http://www.w3.org/2000/svg"><path fill="#333333" d="M900.375401 601.669252c1.033539-15.252379 1.556449-31.003108 1.556449-47.26242 0-89.471754-36.489052-174.854377-102.743012-240.418628-47.848775-47.349401-108.520599-81.323167-174.73772-99.122555-0.271176-0.099261-0.533143-0.230244-0.814552-0.297782-92.331895-22.104437-206.806089-13.499455-248.434186-26.13831-47.084365-14.295588-82.46313-42.623773-108.157325-86.60445C251.768117 75.677587 232.129848 77.665871 224.394676 79.728856c-34.386158 9.190313-50.145074 70.901817-50.509371 127.983883-0.316202 49.532113 10.29139 98.931197 30.284747 142.79317-2.335185 1.329275-4.443196 3.142573-6.149047 5.437849-44.517913 59.868529-68.048839 131.146922-68.048839 206.131731 0 13.468756 0.503467 26.66429 1.462305 39.59581-43.684942 13.784958-71.185272 59.226916-62.283532 105.865119 4.680603 24.520463 18.543332 45.629223 39.032992 59.438741 15.077394 10.158361 32.409131 15.428388 50.121538 15.428388 5.861498 0 11.765975-0.578168 17.641799-1.744737 2.793626-0.555655 5.328355-1.675152 7.52437-3.206018 13.960966 23.547299 30.572296 44.941562 49.761334 63.930031 35.251875 34.884508 78.583776 61.480236 128.792295 79.047334 46.226834 16.173354 97.262184 24.362874 151.789055 24.362874 1.908466 0 3.827165-0.010233 5.743818-0.031722 163.823136-1.716084 275.482215-57.097416 334.057285-165.120688 1.494027 0.655939 3.081175 1.160429 4.765537 1.440815 4.969175 0.826831 9.942443 1.235131 14.881942 1.235131 18.682501 0 36.879955-5.844102 52.411697-17.019629 20.066011-14.437827 33.286104-35.969213 37.227879-60.626799C970.229352 658.81681 942.804746 615.196337 900.375401 601.669252zM218.793098 158.837588c4.03592-19.408025 9.631358-31.347962 13.55983-37.061081 0.045025 0.076748 0.092098 0.155543 0.13917 0.23536 69.925582 119.691009 187.603749 119.057583 265.460977 118.638027 4.685719-0.024559 90.356914 6.072299 113.372094 12.06785 38.396495 16.278755 66.768683 40.993646 82.098833 71.553663 13.82896 27.568892 16.007579 58.425667 6.131651 86.886883-12.33084 35.537378-41.697681 63.684438-82.691327 79.257112-49.737798 18.893302-113.697505 18.296715-184.963619-1.729387-164.317393-46.172599-205.193359-167.639045-214.934211-235.9345C212.322733 220.186841 212.970486 186.834222 218.793098 158.837588zM130.547265 733.789339c-11.577686-7.80271-19.422352-19.789719-22.088064-33.755802-4.554736-23.861454 7.449669-47.133483 27.768437-57.265238 5.749958 35.651988 15.445784 68.823482 28.928866 99.131765C153.039535 743.566006 140.854005 740.733495 130.547265 733.789339zM763.294326 829.942259c-55.747675 48.523133-137.89358 73.693396-244.155742 74.806753-106.787118 1.043772-195.932438-30.628578-257.756505-91.808986-60.643172-60.010769-91.3925-144.414087-91.3925-250.863515 0-62.98552 18.772552-122.991172 54.365188-174.195368 43.021839 67.861574 109.207237 114.739231 196.720384 139.329279 40.162722 11.286044 78.542844 16.928554 114.15083 16.928554 34.94386 0 67.217914-5.437849 95.847975-16.313547 52.259224-19.85214 90.006943-56.626695 106.287745-103.550401 13.263072-38.222533 10.609639-79.492472-7.421017-116.411313 14.604626 10.43056 28.367071 21.969361 41.099047 34.568307 58.601676 57.990762 90.873684 133.271306 90.873684 211.974809C861.913415 680.279634 828.732711 772.98299 763.294326 829.942259zM923.384441 698.356338c-2.245134 14.055111-9.732665 26.290783-21.083178 34.458813-9.256828 6.659677-20.194948 9.904581-31.328519 9.411347 11.69025-29.789467 20.077268-62.841234 25.146727-99.140974C915.420049 653.145647 927.0796 675.235758 923.384441 698.356338zM360.957959 619.406219c-41.926902 0-76.036767 34.624589-76.036767 77.184917 0 11.04966 8.958022 20.008706 20.008706 20.008706s20.008706-8.959046 20.008706-20.008706c0-20.493753 16.158005-37.166481 36.019355-37.166481 19.86135 0 36.019355 16.673751 36.019355 37.166481 0 11.04966 8.958022 20.008706 20.008706 20.008706s20.008706-8.959046 20.008706-20.008706C436.994726 654.03183 402.88486 619.406219 360.957959 619.406219zM685.393095 619.406219c-41.926902 0-76.036767 34.624589-76.036767 77.184917 0 11.04966 8.958022 20.008706 20.008706 20.008706s20.008706-8.959046 20.008706-20.008706c0-20.493753 16.158005-37.166481 36.019355-37.166481s36.019355 16.673751 36.019355 37.166481c0 11.04966 8.958022 20.008706 20.008706 20.008706 11.050684 0 20.008706-8.959046 20.008706-20.008706C761.429863 654.03183 727.319997 619.406219 685.393095 619.406219z" /></svg>