<?xml version="1.0" standalone="no"?><!DOCTYPE svg PUBLIC "-//W3C//DTD SVG 1.1//EN" "http://www.w3.org/Graphics/SVG/1.1/DTD/svg11.dtd"><svg t="1619249577666" class="icon" viewBox="0 0 1024 1024" version="1.1" xmlns="http://www.w3.org/2000/svg" p-id="4467" xmlns:xlink="http://www.w3.org/1999/xlink" width="200" height="200"><defs><style type="text/css"></style></defs><path d="M516.213992 657.382716c-162.238683 0-309.728395-84.279835-436.148148-250.73251-10.534979-14.748971-8.427984-33.711934 6.320987-44.246914s33.711934-8.427984 44.246914 6.320988c113.777778 149.596708 244.411523 225.44856 385.580247 225.44856 143.27572 0 267.588477-73.744856 377.152263-225.44856 10.534979-14.748971 29.497942-16.855967 44.246914-6.320988 14.748971 10.534979 16.855967 29.497942 6.320987 44.246914-120.098765 166.452675-265.481481 250.73251-427.720164 250.73251z" fill="#666666" p-id="4468"></path><path d="M153.8107 680.559671c-8.427984 0-14.748971-2.106996-21.069959-8.427984-12.641975-12.641975-12.641975-31.604938-2.106996-44.246913l80.065843-88.493827c12.641975-12.641975 31.604938-12.641975 44.246914-2.106996 12.641975 12.641975 12.641975 31.604938 2.106996 44.246913l-80.065844 86.386831c-6.320988 8.427984-14.748971 12.641975-23.176954 12.641976zM394.00823 775.374486h-6.320987c-16.855967-4.213992-27.390947-18.962963-25.283951-37.925926l23.176955-115.884774c4.213992-16.855967 18.962963-27.390947 37.925926-25.283951 16.855967 4.213992 27.390947 18.962963 25.28395 37.925926l-23.176954 115.884774c-2.106996 14.748971-16.855967 25.283951-31.604939 25.283951zM627.884774 773.26749c-14.748971 0-27.390947-10.534979-31.604939-25.283951l-21.069958-115.884774c-4.213992-16.855967 8.427984-33.711934 25.28395-37.925925 16.855967-4.213992 33.711934 8.427984 37.925926 25.28395l23.176955 115.884774c4.213992 16.855967-8.427984 33.711934-25.283951 37.925926h-8.427983zM868.082305 680.559671c-8.427984 0-16.855967-4.213992-23.176955-10.53498l-80.065844-86.386831c-12.641975-12.641975-10.534979-33.711934 2.106996-44.246913 12.641975-12.641975 33.711934-10.534979 44.246914 2.106995l80.065843 86.386832c12.641975 12.641975 10.534979 33.711934-2.106996 44.246913-4.213992 4.213992-12.641975 8.427984-21.069958 8.427984z" fill="#666666" p-id="4469"></path></svg>