<?xml version="1.0" standalone="no"?><!DOCTYPE svg PUBLIC "-//W3C//DTD SVG 1.1//EN" "http://www.w3.org/Graphics/SVG/1.1/DTD/svg11.dtd"><svg t="1619158993014" class="icon" viewBox="0 0 1024 1024" version="1.1" xmlns="http://www.w3.org/2000/svg" p-id="8744" xmlns:xlink="http://www.w3.org/1999/xlink" width="200" height="200"><defs><style type="text/css"></style></defs><path d="M832 128H704V96a32 32 0 1 0-64 0v32H384V96a32 32 0 1 0-64 0v32H192a64 64 0 0 0-64 64v640a64 64 0 0 0 64 64h640a64 64 0 0 0 64-64V192a64 64 0 0 0-64-64z m0 704H192V192h128v32a32 32 0 0 0 64 0v-32h256v32a32 32 0 0 0 64 0v-32h128z" p-id="8745"></path><path d="M640 576H384a32 32 0 0 0-32 32 32 32 0 0 0 32 32h256a32 32 0 0 0 32-32 32 32 0 0 0-32-32zM640 384H384a32 32 0 0 0-32 32 32 32 0 0 0 32 32h256a32 32 0 0 0 32-32 32 32 0 0 0-32-32z" p-id="8746"></path></svg>