<?xml version="1.0" standalone="no"?><!DOCTYPE svg PUBLIC "-//W3C//DTD SVG 1.1//EN" "http://www.w3.org/Graphics/SVG/1.1/DTD/svg11.dtd"><svg t="1619158952204" class="icon" viewBox="0 0 1024 1024" version="1.1" xmlns="http://www.w3.org/2000/svg" p-id="8347" xmlns:xlink="http://www.w3.org/1999/xlink" width="200" height="200"><defs><style type="text/css"></style></defs><path d="M749.4 938.4H276.9c-78.3 0-141.9-63.7-141.9-141.9V231.4c0-78.3 63.7-141.9 141.9-141.9h472.6c78.3 0 141.9 63.7 141.9 141.9v55.4c0 13.8-11.2 25-25 25s-25-11.2-25-25v-55.4c0-50.7-41.2-91.9-91.9-91.9H276.9c-50.7 0-91.9 41.2-91.9 91.9v565.1c0 50.7 41.2 91.9 91.9 91.9h472.6c50.7 0 91.9-41.2 91.9-91.9v-53c0-13.8 11.2-25 25-25s25 11.2 25 25v53c0 78.3-63.7 141.9-142 141.9z" p-id="8348"></path><path d="M866.4 666.8H472.2c-84.3 0-152.9-68.6-152.9-152.9 0-84.3 68.6-152.9 152.9-152.9h394.2c13.8 0 25 11.2 25 25v255.8c0 13.8-11.2 25-25 25zM472.2 411.1c-56.7 0-102.9 46.2-102.9 102.9s46.2 102.9 102.9 102.9h369.2V411.1H472.2z" p-id="8349"></path><path d="M477.8 512.1m-47.9 0a47.9 47.9 0 1 0 95.8 0 47.9 47.9 0 1 0-95.8 0Z" p-id="8350"></path></svg>